<svg xmlns="http://www.w3.org/2000/svg" viewBox="0 0 235.57 234.32"><defs><style>.cls-1{fill:#b5d6e7;}.cls-2{fill:#d3ecf4;}.cls-3{fill:#69b7d1;}.cls-4{fill:#3e3127;}.cls-5{fill:#88cbcf;}.cls-6{fill:#5baaa8;}.cls-7{fill:#eba42c;}.cls-8{fill:#b27812;}.cls-9{fill:#d38a20;}.cls-10,.cls-25{fill:#fff;}.cls-11{fill:#fdd2bf;}.cls-12{fill:#e8af94;}.cls-13{fill:#dbcec8;}.cls-14{fill:#e9baa8;}.cls-15{fill:#dc9884;opacity:0.8;}.cls-16{fill:#b77267;opacity:0.4;}.cls-17{fill:#acf487;}.cls-18{fill:#3c3127;}.cls-19{fill:#c9e74d;}.cls-20{fill:#8db63f;}.cls-21{fill:#7aa027;}.cls-22{fill:#e4f969;}.cls-23{fill:#ff8ca9;}.cls-24{fill:#ef507e;}.cls-25{opacity:0.2;}.cls-26{fill:#963b3b;}.cls-27{fill:#872d2d;}.cls-28{fill:#c5d8e2;}.cls-29{fill:#637582;}.cls-30{fill:#455760;}.cls-31{fill:#94a5af;}.cls-32{fill:#ecebeb;}.cls-33{fill:#ffc754;}.cls-34{fill:#a2fce2;}.cls-35{fill:#e29f27;}</style></defs><title>Asset 17</title><g id="Layer_2" data-name="Layer 2"><g id="Layer_1-2" data-name="Layer 1"><path class="cls-1" d="M131.44,67.61l2.67,2.55,6.7,6.39a1.54,1.54,0,0,1-.87,2.64l-16.63,2a1.53,1.53,0,0,0-1.3,1.92l4.27,16a1.54,1.54,0,0,1-1.46,1.93l-15.06.21a1.55,1.55,0,0,0-1.51,1.36l-1.45,13a1.53,1.53,0,0,1-2.37,1.11l-12.71-9.25L34.67,76,20.08,69.09a1.54,1.54,0,0,1-.27-2.61l10.34-7.93a1.54,1.54,0,0,0,.39-2l-7.6-13a1.54,1.54,0,0,1,.9-2.25l16-4.64a1.54,1.54,0,0,0,1-2.1L33.91,19.29a1.53,1.53,0,0,1,1.8-2.11l9.51,2.6,5,1.36,9.67,2.64L62,4.55a1.54,1.54,0,0,1,2.65-.88L83,23.18,98.53,2.3a1.53,1.53,0,0,1,2.75,1.12L97.66,29.54"/><path class="cls-1" d="M127.22,63.58l-4.54-4.33,15.38-11.73a1.53,1.53,0,0,0-.61-2.72l-26.19-5.68,4-9.7,2.45-6,3.45-8.4a1.53,1.53,0,0,0-2.39-1.77L98.25,29.87l-1.7-.2"/><path class="cls-2" d="M44.1,44.4c-3.76,2.32-8.31,3.37-11.59,6.34a14.42,14.42,0,0,0-3,4L22.94,43.56a1.54,1.54,0,0,1,.9-2.25l16-4.64a1.54,1.54,0,0,0,1-2.1L33.91,19.29a1.53,1.53,0,0,1,1.8-2.11l9.51,2.6,5,1.36,2.87.78a37.5,37.5,0,0,1,.22,8A19.91,19.91,0,0,1,44.1,44.4Z"/><path class="cls-3" d="M84.52,79.72Q79.71,88.27,75.19,97l16,9.25,13.45,8.92a1.54,1.54,0,0,0,2.38-1.11l1.45-13a1.55,1.55,0,0,1,1.5-1.37l15.06-.2a1.55,1.55,0,0,0,1.47-1.93l-4.27-16.06a1.53,1.53,0,0,1,1.3-1.92l16.62-2A1.53,1.53,0,0,0,141,75l-7.13-6.8-3.75-3.58-7.25-6.93L138.27,46a1.54,1.54,0,0,0-.61-2.72l-9.09-2a28.32,28.32,0,0,1-7.84,10.62,41.79,41.79,0,0,0-4.54,3.72c-2.73,2.92-3.7,7.08-3.8,11.07s.56,8,.62,12a13.53,13.53,0,0,1-1.24,6.64,6,6,0,0,1-5.5,3.34c-3.46-.35-5.24-4.24-6.16-7.59S98,73.73,94.66,72.69a6.71,6.71,0,0,0-6.21,1.64A19.52,19.52,0,0,0,84.52,79.72Z"/><path class="cls-4" d="M98.24,30a1.4,1.4,0,0,1-.71-.19,1.42,1.42,0,0,1-.71-1.43l3.57-25.79a.57.57,0,0,0-.37-.64.56.56,0,0,0-.71.2L83.15,23.89,79.5,20l1.36-1.28L83,21,97.81,1a2.47,2.47,0,0,1,4.43,1.81L98.83,27.5,118.2,11.83A2.47,2.47,0,0,1,122,14.69l-3.45,8.4-1.73-.71,3.45-8.4a.6.6,0,0,0-.93-.7L99.13,29.65A1.41,1.41,0,0,1,98.24,30Z"/><path class="cls-4" d="M60.74,24.23,50,21.3l.49-1.8,8.62,2.35,2-18.14a2.47,2.47,0,0,1,4.25-1.42l2.75,2.92L66.76,6.49,64,3.57a.59.59,0,0,0-.63-.16.6.6,0,0,0-.41.51Z"/><path class="cls-4" d="M24.56,47.37l-2.38-4.08A2.42,2.42,0,0,1,22,41.13a2.45,2.45,0,0,1,1.6-1.46l16-4.63a.58.58,0,0,0,.38-.33.59.59,0,0,0,0-.5L33.09,18.94A2.48,2.48,0,0,1,36,15.54l9.5,2.6L45,19.94,35.5,17.35a.57.57,0,0,0-.61.18.58.58,0,0,0-.09.64l6.86,15.28a2.46,2.46,0,0,1-1.56,3.38l-16,4.63a.61.61,0,0,0-.39.36.6.6,0,0,0,0,.53l2.38,4.08Z"/><path class="cls-4" d="M34.3,76.11,19.72,69.19A2.46,2.46,0,0,1,19.28,65l10.34-7.93a.6.6,0,0,0,.15-.78L26.5,50.7l1.62-.94,3.26,5.59a2.46,2.46,0,0,1-.63,3.2L20.41,66.48a.6.6,0,0,0-.23.54.57.57,0,0,0,.34.48L35.1,74.43Z"/><path class="cls-4" d="M126.61,63.52l-5.33-5.09L137.53,46a.61.61,0,0,0-.24-1.07L110,39.06l4.41-10.74,1.73.71-3.57,8.68,25.11,5.43A2.47,2.47,0,0,1,139.58,45a2.44,2.44,0,0,1-.92,2.5L124.15,58.59l3.75,3.58Z"/><path class="cls-4" d="M108.73,106.42l-1.86-.21.49-4.38a2.48,2.48,0,0,1,2.42-2.19l15.06-.21a.6.6,0,0,0,.57-.76l-4.26-16a2.45,2.45,0,0,1,.34-2,2.49,2.49,0,0,1,1.75-1.07l16.62-2a.57.57,0,0,0,.5-.4.6.6,0,0,0-.15-.63l-9.38-8.95,1.29-1.35,9.37,9a2.47,2.47,0,0,1-1.4,4.24l-16.63,2a.56.56,0,0,0-.43.26.62.62,0,0,0-.08.49l4.27,16a2.49,2.49,0,0,1-.42,2.13,2.45,2.45,0,0,1-1.93,1l-15.06.21a.6.6,0,0,0-.59.53Z"/><path class="cls-4" d="M105.31,117.19a2.4,2.4,0,0,1-1.36-.42l0,0-12.7-9.25,1.1-1.51L105,115.23a.63.63,0,0,0,.58,0,.61.61,0,0,0,.34-.48l.45-4,1.86.21-.46,4a2.44,2.44,0,0,1-1.4,2A2.47,2.47,0,0,1,105.31,117.19Z"/><circle class="cls-2" cx="53.79" cy="31.07" r="3.73"/><circle class="cls-2" cx="60.8" cy="29.92" r="1.71"/><circle class="cls-3" cx="116.96" cy="54.61" r="3.73"/><circle class="cls-3" cx="114.32" cy="48.01" r="1.71"/><circle class="cls-3" cx="93.4" cy="72.62" r="3.73"/><circle class="cls-3" cx="90.72" cy="66.04" r="1.71"/><rect class="cls-5" x="18.19" y="123.89" width="27" height="44.53" transform="translate(75.2 3.07) rotate(29.15)"/><circle class="cls-6" cx="32.1" cy="148.06" r="2.83"/><circle class="cls-6" cx="31.02" cy="142.59" r="1.26"/><rect class="cls-7" x="8.64" y="167.39" width="20.87" height="2.98" transform="translate(84.67 12.1) rotate(29.15)"/><rect class="cls-7" x="8.79" y="167.16" width="20.87" height="2.98" transform="translate(85.43 12.36) rotate(29.46)"/><rect class="cls-8" x="8.41" y="167.45" width="20.87" height="2.45" transform="translate(85.4 12.54) rotate(29.46)"/><rect class="cls-9" x="9.44" y="165.99" width="20.87" height="1.73" transform="translate(84.64 11.8) rotate(29.46)"/><rect class="cls-4" x="19.87" y="155.49" width="1.49" height="21.14" transform="translate(-134.11 102.33) rotate(-60.54)"/><rect class="cls-4" x="17.53" y="159.51" width="1.49" height="21.37" transform="translate(-138.9 102.4) rotate(-60.54)"/><rect class="cls-4" x="13.99" y="166.25" width="4.79" height="1.49" transform="translate(-137.08 99.14) rotate(-60.54)"/><rect class="cls-4" x="18.92" y="168.92" width="5.17" height="1.49" transform="translate(-136.81 104.96) rotate(-60.54)"/><circle class="cls-4" cx="19.62" cy="168.44" r="0.5"/><path class="cls-10" d="M10.46,156.89l-8.2-4.63,14.36-25.42a9.42,9.42,0,0,1,12.83-3.57h0Z"/><path class="cls-11" d="M8.59,155.91l-3.87,6.85-.16-.09A7.66,7.66,0,0,1,2,152.16Z"/><path class="cls-10" d="M8.67,166.48l-3.54-2A1.08,1.08,0,0,1,4.72,163l22.36-39.58a6.3,6.3,0,0,1,8.6-2.39h0L11.73,165.59A2.23,2.23,0,0,1,8.67,166.48Z"/><path class="cls-6" d="M33,168.23h0a11.11,11.11,0,0,1-4.2-15.14l12.38-23.76,12,3.19Z"/><path class="cls-11" d="M43.89,100.17H56.5a0,0,0,0,1,0,0V123.1a6.31,6.31,0,0,1-6.31,6.31h0a6.31,6.31,0,0,1-6.31-6.31V100.17A0,0,0,0,1,43.89,100.17Z" transform="matrix(0.87, 0.49, -0.49, 0.87, 62.95, -9.84)"/><path class="cls-12" d="M55.88,118.84,54,122.13a33.5,33.5,0,0,1-6.45-2.8,32.68,32.68,0,0,1-4.66-3.18l1.86-3.3A33.35,33.35,0,0,0,49.44,116,33.82,33.82,0,0,0,55.88,118.84Z"/><path class="cls-4" d="M46.09,129.28a7.24,7.24,0,0,1-6.3-10.8L51.53,97.7l12.61,7.13L52.4,125.6A7.24,7.24,0,0,1,46.09,129.28Zm6.15-29L41.42,119.4a5.33,5.33,0,0,0-.5,4.08,5.38,5.38,0,0,0,9.86,1.2L61.6,105.53Z"/><circle class="cls-12" cx="50.17" cy="120.81" r="1.67"/><circle class="cls-12" cx="46.91" cy="121.17" r="0.74"/><path class="cls-4" d="M9.59,167.59a2.9,2.9,0,0,1-1.46-.39h0l-3.55-2a1.83,1.83,0,0,1-.86-1.1,1.85,1.85,0,0,1,.17-1.4l22.36-39.58a7.07,7.07,0,0,1,9.62-2.68l.64.36L12.21,166a2.94,2.94,0,0,1-1.79,1.45A3,3,0,0,1,9.59,167.59Zm-.73-1.69A1.47,1.47,0,0,0,10,166a1.51,1.51,0,0,0,.9-.72l23.58-43.89a5.46,5.46,0,0,0-3.57-.2,5.53,5.53,0,0,0-3.36,2.62L5.19,163.44a.31.31,0,0,0,0,.26.31.31,0,0,0,.16.2Z"/><path class="cls-4" d="M4.21,163.65l-.16-.09A8.41,8.41,0,0,1,1.16,152l4.06-7.18h0c.28-.66,1.19-2.25,3.83-6.9,1.93-3.4,3.87-6.79,3.87-6.79L16.46,125a8.41,8.41,0,0,1,11.36-3.47l.16.09-.74,1.3-.15-.09a6.93,6.93,0,0,0-9.33,2.91l-3.52,6.22c-2.76,4.82-6.85,12-7.58,13.38v0l-4.21,7.46a6.91,6.91,0,0,0,2.33,9.48l.15.09Z"/><rect class="cls-4" x="4.38" y="150.47" width="1.49" height="7.62" transform="translate(-131.73 82.87) rotate(-60.54)"/><path class="cls-5" d="M51.71,130.07C50.5,132.21,46,132,41.66,129.5s-6.88-6.17-5.67-8.31c.55-1,1.77-1.45,3.36-1.45a14.26,14.26,0,0,0,5.18,4.68,14.26,14.26,0,0,0,6.68,2C52,127.8,52.26,129.1,51.71,130.07Z"/><path class="cls-6" d="M52,129.84c-1.21,2.14-5.71,1.88-10-.57-.29-.16-.56-.33-.83-.5a1.08,1.08,0,0,1,.18-.24,2.14,2.14,0,0,1,1.66-.6,6.8,6.8,0,0,1,1.78.37,10,10,0,0,0,2.91.49,4,4,0,0,0,2.72-1,3.38,3.38,0,0,0,.92-1.58h.21C52.32,127.57,52.55,128.87,52,129.84Z"/><path class="cls-4" d="M48.51,132.17a15,15,0,0,1-7-2.11,15.56,15.56,0,0,1-5.16-4.5c-1.24-1.82-1.52-3.54-.79-4.83s2.09-1.84,4-1.83H40l.22.36a13.55,13.55,0,0,0,4.91,4.42,13.59,13.59,0,0,0,6.3,1.92h.43L52,126c1,1.65,1.18,3.2.51,4.39S50.39,132.17,48.51,132.17Zm-9.37-11.76a2.66,2.66,0,0,0-2.31,1c-.43.77-.17,2,.72,3.25a14.07,14.07,0,0,0,4.67,4c3.41,1.93,8,2.75,9,.85h0a2.66,2.66,0,0,0-.29-2.52A15.78,15.78,0,0,1,44.35,125,15.52,15.52,0,0,1,39.14,120.41Z"/><path class="cls-10" d="M27.71,176.35l3.55,2a1.08,1.08,0,0,0,1.48-.41L55.1,138.36a6.31,6.31,0,0,0-2.39-8.61h0L26.89,173.28A2.23,2.23,0,0,0,27.71,176.35Z"/><line class="cls-10" x1="43.72" y1="178.65" x2="37.09" y2="174.91"/><path class="cls-10" d="M54.29,136.06h0a9.42,9.42,0,0,1,3.56,12.83L43.49,174.31l-8.2-4.63Z"/><rect class="cls-13" x="45.78" y="135" width="2.36" height="39.06" transform="translate(82.08 -3.11) rotate(29.46)"/><path class="cls-11" d="M36.33,170.69l-3.86,6.85.16.09A7.66,7.66,0,0,0,43,174.44Z"/><path class="cls-12" d="M38.07,172.14l-3.77,6.67a6.72,6.72,0,0,1-1.55-.65l-.16-.09,3.86-6.84Z"/><path class="cls-13" d="M35,172.56l-2.62,4.63a1.08,1.08,0,0,1-1.48.41l-3.55-2a2.18,2.18,0,0,1-1.1-1.63A7.93,7.93,0,0,0,35,172.56Z"/><circle class="cls-13" cx="31.34" cy="173.75" r="1.11"/><circle class="cls-13" cx="30.91" cy="171.61" r="0.5"/><rect class="cls-4" x="54.74" y="152.71" width="0.37" height="1.12" transform="translate(-105.54 125.67) rotate(-60.52)"/><path class="cls-4" d="M50.37,162.47l-1-.55.35-.62,1,.55Zm.71-1.25-1-.55.36-.63,1,.56Zm.71-1.25-1-.55.35-.63,1,.55Zm.7-1.25-1-.55.35-.63,1,.55Zm.71-1.25-1-.55.36-.63,1,.55Zm.71-1.26-1-.55.35-.62,1,.55Zm.7-1.25-1-.55.35-.62,1,.55Z"/><rect class="cls-4" x="49.25" y="162.43" width="0.37" height="1.12" transform="translate(-116.77 125.8) rotate(-60.51)"/><path class="cls-4" d="M31.51,179.08a1.91,1.91,0,0,1-.9-.23l-3.54-2a3,3,0,0,1-1.1-4.1l26.19-44.15.64.36a7,7,0,0,1,2.67,9.62L33.11,178.15A1.84,1.84,0,0,1,32,179,2.14,2.14,0,0,1,31.51,179.08Zm21.17-48.43L27.26,173.5a1.47,1.47,0,0,0-.16,1.14,1.44,1.44,0,0,0,.7.9h0l3.55,2a.33.33,0,0,0,.26,0,.39.39,0,0,0,.2-.16l22.36-39.59a5.48,5.48,0,0,0,.52-4.23A5.54,5.54,0,0,0,52.68,130.65Z"/><path class="cls-4" d="M36.15,179.47a7.86,7.86,0,0,1-3.86-1l-.16-.09.74-1.3.15.09a6.49,6.49,0,0,0,5.13.51,7.28,7.28,0,0,0,4.2-3.42l6.08-10.76,1.3.73L43.65,175a8.78,8.78,0,0,1-5.06,4.12A8.26,8.26,0,0,1,36.15,179.47Z"/><path class="cls-4" d="M56.22,152.74l-1.3-.74,2.73-4.83a7.29,7.29,0,0,0,.76-5.37,6.46,6.46,0,0,0-3.09-4.12l-.15-.09.73-1.3.16.09a7.93,7.93,0,0,1,3.8,5.06A8.76,8.76,0,0,1,59,147.9Z"/><rect class="cls-4" x="38.94" y="168.93" width="1.49" height="7.62" transform="translate(-130.24 122.34) rotate(-60.54)"/><rect class="cls-14" x="33.11" y="54.28" width="16.82" height="13.88" rx="6.94" transform="translate(35.48 -12.5) rotate(29.46)"/><rect class="cls-11" x="36.34" y="56.42" width="10.76" height="8.87" rx="4.44" transform="translate(35.33 -12.65) rotate(29.46)"/><path class="cls-4" d="M43,69.47a7.77,7.77,0,0,1-3.86-1L36.56,67a7.87,7.87,0,0,1,7.75-13.71l2.56,1.45a7.88,7.88,0,0,1,3,10.73,7.88,7.88,0,0,1-6.86,4Zm-3-2.64A6,6,0,1,0,46,56.37l-2.56-1.45a6,6,0,0,0-5.91,10.46Z"/><rect class="cls-14" x="91.08" y="87.03" width="16.82" height="13.88" rx="6.94" transform="translate(59.09 -36.78) rotate(29.46)"/><rect class="cls-11" x="94.32" y="89.17" width="10.76" height="8.87" rx="4.44" transform="translate(58.94 -36.93) rotate(29.46)"/><path class="cls-4" d="M101,102.22a7.79,7.79,0,0,1-3.86-1l-2.56-1.45a7.87,7.87,0,1,1,7.74-13.7l2.57,1.44a7.87,7.87,0,0,1-1.77,14.44A7.69,7.69,0,0,1,101,102.22ZM98,99.58a6,6,0,0,0,5.91-10.46l-2.57-1.45a6,6,0,1,0-5.9,10.46Z"/><rect class="cls-11" x="37.29" y="32.27" width="67.29" height="88.86" rx="33.64" transform="translate(46.9 -24.97) rotate(29.46)"/><path class="cls-12" d="M104.91,85,94.3,103.74a33.64,33.64,0,0,1-45.84,12.75L92.17,39.11A33.65,33.65,0,0,1,104.91,85Z"/><path class="cls-10" d="M51.52,117.9c-.62-.3-1.25-.63-1.86-1A33.64,33.64,0,0,1,36.91,71.08L47.53,52.3A33.64,33.64,0,0,1,93.37,39.55c.61.35,1.21.71,1.8,1.09a33.65,33.65,0,0,0-44,13.72L40.58,73.15A33.63,33.63,0,0,0,51.52,117.9Z"/><path class="cls-4" d="M65.73,121.26a34.61,34.61,0,0,1-30.05-51.6L46.29,50.88a34.58,34.58,0,1,1,60.21,34L95.89,103.68a34.69,34.69,0,0,1-30.16,17.58Zm10.72-86.1a32.83,32.83,0,0,0-8.81,1.21A32.49,32.49,0,0,0,47.92,51.79L37.3,70.58a32.71,32.71,0,0,0,57,32.18L104.88,84A32.73,32.73,0,0,0,76.45,35.16Z"/><circle class="cls-10" cx="62.1" cy="44.5" r="3.36"/><circle class="cls-10" cx="68.43" cy="43.46" r="1.54"/><path class="cls-4" d="M36.64,63.13a4.87,4.87,0,0,1,4.12-7.42v1.12a3.76,3.76,0,0,0-3.18,5.72Z"/><path class="cls-4" d="M100.51,99.1h0V98h0a3.75,3.75,0,0,0,3.23-5.67l1-.57a4.87,4.87,0,0,1-4.19,7.36Z"/><path class="cls-15" d="M97.48,68.55a.81.81,0,0,1-.37-.09l-12.45-7-5.59,1.1-2.48-5.66-10.69-6a.74.74,0,0,1-.28-1,.73.73,0,0,1,1-.28l11.13,6.28,2.2,5,5-1,12.92,7.31a.74.74,0,0,1-.36,1.39Z"/><path class="cls-15" d="M95.46,62.06a.71.71,0,0,1-.37-.1l-9.15-5.17-4.21.83-1.88-4.27L72,48.92a.74.74,0,0,1-.28-1,.73.73,0,0,1,1-.28L81,52.3l1.59,3.63,3.59-.71,9.62,5.44a.75.75,0,0,1-.36,1.4Z"/><path class="cls-12" d="M51.43,63.08c4.44-1.14,9.22-.33,12.53,3,3.11,3.12,4.93,7,9.4,8.43,4,1.26,8.09.94,11.66,3.35a14,14,0,0,1,6,10.4c.14,1.43,2.38,1.41,2.24,0A16.44,16.44,0,0,0,88,77.31c-3.61-3.19-7.72-3.61-12.25-4.53A11,11,0,0,1,69,68.69c-1.65-2-3.07-4.15-5.21-5.69a15.41,15.41,0,0,0-13-2.08,1.12,1.12,0,0,0,.6,2.16Z"/><path class="cls-1" d="M55.05,60.65a12.55,12.55,0,0,1,10,3.06c3.41,3.1,5.72,6.71,10.23,8.41,3.75,1.41,7.77,1.5,11.22,3.7a12.75,12.75,0,0,1,5.71,8.31c.85,4.24,7.32,2.42,6.48-1.8a18.86,18.86,0,0,0-7.18-11.14,21.94,21.94,0,0,0-6-3.26c-2.4-.88-5-1.17-7.4-1.92-4.54-1.39-6.87-6.3-10.68-8.9a19.66,19.66,0,0,0-14.21-2.93c-1.8.27-2.78,2.54-2.34,4.13.54,1.93,2.34,2.61,4.14,2.34Z"/><path class="cls-3" d="M92.82,83.76a12.72,12.72,0,0,0-5.67-8.34c-3.43-2.23-7.46-2.34-11.2-3.77-4.49-1.73-6.79-5.34-10.18-8.47a12.51,12.51,0,0,0-10-3.11c-1.8.26-3.6-.44-4.12-2.37a3.58,3.58,0,0,1,1.65-3.9,3.38,3.38,0,0,0,0,1.81c.52,1.93,2.32,2.63,4.12,2.37a12.51,12.51,0,0,1,10,3.11c3.39,3.12,5.69,6.74,10.19,8.47C81.3,71,85.33,71.1,88.76,73.32a12.77,12.77,0,0,1,5.67,8.34c.5,2.58,3.07,2.94,4.84,1.89C98.5,86.59,93.53,87.44,92.82,83.76Z"/><path class="cls-4" d="M95.09,87.48a4.19,4.19,0,0,1-1.32-.21,3.72,3.72,0,0,1-2.47-3A11.83,11.83,0,0,0,86,76.61a20.42,20.42,0,0,0-6.56-2.36A35,35,0,0,1,75,73c-3.43-1.3-5.69-3.66-7.88-5.95-.84-.88-1.71-1.79-2.65-2.64a11.69,11.69,0,0,0-9.23-2.83,4.38,4.38,0,0,1-5.18-3,4.6,4.6,0,0,1,.63-3.63,3.6,3.6,0,0,1,2.47-1.68A20.52,20.52,0,0,1,68,56.34a25.78,25.78,0,0,1,4.24,4c1.9,2.07,3.69,4,6.18,4.8,1,.32,2.14.56,3.2.79a33.44,33.44,0,0,1,4.25,1.14,22.87,22.87,0,0,1,6.21,3.4,19.76,19.76,0,0,1,7.54,11.69,4.28,4.28,0,0,1-1.38,4.14A4.82,4.82,0,0,1,95.09,87.48ZM56.73,59.59a13.51,13.51,0,0,1,9,3.43c1,.89,1.88,1.83,2.74,2.73,2.14,2.24,4.15,4.35,7.19,5.49a35.19,35.19,0,0,0,4.24,1.2A21.83,21.83,0,0,1,87,75a13.68,13.68,0,0,1,6.13,8.9,1.88,1.88,0,0,0,1.24,1.56A2.83,2.83,0,0,0,97,84.88a2.39,2.39,0,0,0,.77-2.37,17.89,17.89,0,0,0-6.83-10.58,21.16,21.16,0,0,0-5.71-3.13,30,30,0,0,0-4-1.06c-1.1-.24-2.23-.49-3.35-.83-3-.92-5-3.16-7-5.33a24.13,24.13,0,0,0-3.91-3.7A18.7,18.7,0,0,0,53.39,55.1,1.8,1.8,0,0,0,52.2,56a2.79,2.79,0,0,0-.39,2.11,2.56,2.56,0,0,0,3.1,1.67h0A12.29,12.29,0,0,1,56.73,59.59Z"/><path class="cls-4" d="M60.13,97.2a.94.94,0,0,1-.82-1.39l4.78-8.45a.93.93,0,1,1,1.63.91l-4.78,8.46A.94.94,0,0,1,60.13,97.2Z"/><circle class="cls-10" cx="79.84" cy="88.81" r="9.47"/><path class="cls-4" d="M88.9,92.34a.83.83,0,0,1-.22,0,.75.75,0,0,1-.5-.94,8.73,8.73,0,0,0-15.25-7.89.75.75,0,1,1-1.19-.91,10.22,10.22,0,0,1,17.87,9.24A.75.75,0,0,1,88.9,92.34Z"/><path class="cls-4" d="M79.86,99a10.24,10.24,0,0,1-9.72-13.45.75.75,0,0,1,1.42.48,8.72,8.72,0,0,0,15.07,8.22.76.76,0,0,1,1.05-.12.74.74,0,0,1,.12,1A10.17,10.17,0,0,1,79.86,99Z"/><circle class="cls-10" cx="56.2" cy="75.45" r="9.47"/><path class="cls-4" d="M65.26,79A.78.78,0,0,1,65,79a.74.74,0,0,1-.5-.93,8.73,8.73,0,0,0-15.25-7.89.75.75,0,0,1-1.19-.91A10.22,10.22,0,0,1,66,78.46.75.75,0,0,1,65.26,79Z"/><path class="cls-4" d="M56.22,85.68A10.23,10.23,0,0,1,46.5,72.24a.73.73,0,0,1,.94-.47.75.75,0,0,1,.48.94A8.72,8.72,0,0,0,63,80.93a.75.75,0,0,1,1.17.94A10.16,10.16,0,0,1,56.22,85.68Z"/><path class="cls-16" d="M56.53,88.67h0A14.35,14.35,0,0,1,45,82.87.74.74,0,1,1,46.18,82a12.92,12.92,0,0,0,10.35,5.23.75.75,0,0,1,0,1.49Z"/><path class="cls-16" d="M79.53,102h-.09a14.38,14.38,0,0,1-10.92-6.88.75.75,0,0,1,1.28-.77,12.89,12.89,0,0,0,9.82,6.16.75.75,0,0,1,.65.84A.75.75,0,0,1,79.53,102Z"/><path class="cls-17" d="M57,106.37l-2,3.51a1,1,0,0,0,.36,1.3,1,1,0,0,0,1.28-.34l.63-1.12,0,0a1,1,0,0,1,.55-.42,1,1,0,0,1,.72.09.94.94,0,0,1,.36,1.29L57.65,113a.95.95,0,1,0,1.65.93l5.16-9.14-3.38-.73-2.18-1-1.79,3.16Z"/><path class="cls-17" d="M52.44,101.36l-1.15,2a.57.57,0,0,1-.76.21.55.55,0,0,1-.21-.74l.37-.65v0a.62.62,0,0,0,0-.4.54.54,0,0,0-.26-.33.54.54,0,0,0-.75.21L49,103.05a.54.54,0,0,1-.75.21.56.56,0,0,1-.21-.75l3-5.33,1.38,1.47,1.14.8-1,1.85A.21.21,0,0,1,52.44,101.36Z"/><path class="cls-4" d="M65.27,106.89a.93.93,0,0,1-.46-.12L49.2,98a.93.93,0,1,1,.92-1.62l15.61,8.81a.94.94,0,0,1,.35,1.27A.93.93,0,0,1,65.27,106.89Z"/><circle class="cls-17" cx="46.92" cy="106.08" r="1.06"/><rect class="cls-4" x="77.62" y="83.46" width="4.22" height="10.55" rx="2.11" transform="translate(53.96 -27.74) rotate(29.46)"/><circle class="cls-10" cx="82.34" cy="88.09" r="1.98"/><rect class="cls-4" x="53.69" y="69.94" width="4.22" height="10.55" rx="2.11" transform="translate(44.21 -17.72) rotate(29.46)"/><circle class="cls-10" cx="58.41" cy="74.57" r="1.98"/><rect class="cls-4" x="67.31" y="6.9" width="1.87" height="0.37" transform="translate(14.35 49.55) rotate(-44.17)"/><path class="cls-4" d="M77.73,18.21l-.5-.52,1.34-1.3.5.52Zm-1-1-.51-.51,1.34-1.3.51.51Zm-1-1-.5-.52,1.34-1.3.5.52Zm-1-1-.5-.52,1.34-1.3.5.52Zm-1-1-.5-.51,1.34-1.3.5.51Zm-1-1-.5-.52,1.34-1.3.5.52Zm-1-1-.5-.52,1.34-1.3.5.52Zm-1-1-.5-.51,1.34-1.31.5.52Zm-1-1-.5-.52,1.34-1.3.5.52Zm-1-1-.5-.51,1.34-1.3.5.51Z"/><rect class="cls-4" x="78.1" y="18.02" width="1.87" height="0.37" transform="translate(9.63 60.17) rotate(-44.13)"/><path class="cls-18" d="M37.37,141.33a.38.38,0,0,1-.35-.23.38.38,0,0,1,.21-.49l10.6-4.13a.39.39,0,0,1,.49.21.38.38,0,0,1-.22.49l-10.6,4.13Z"/><path class="cls-18" d="M40.11,137.85a.37.37,0,0,1-.12-.73l3-1a.37.37,0,1,1,.23.7l-3,1Z"/><path class="cls-18" d="M11.28,136.67a.36.36,0,0,1-.35-.26.37.37,0,0,1,.23-.47l3-1a.37.37,0,1,1,.23.7l-3,1Z"/><path class="cls-18" d="M15.18,160.37a.37.37,0,0,1-.35-.25.37.37,0,0,1,.22-.48l8.71-3a.37.37,0,0,1,.48.22.38.38,0,0,1-.23.48l-8.71,3.06Z"/><path class="cls-18" d="M20.5,156.26a.37.37,0,0,1-.36-.25.38.38,0,0,1,.24-.47l1.73-.57a.37.37,0,0,1,.47.24.37.37,0,0,1-.24.47l-1.73.57Z"/><circle class="cls-18" cx="15.9" cy="134.95" r="0.45"/><path class="cls-13" d="M226.32,226.73l-4.53-10c-5.59,2.53-6.74-3.93-10-11.07L200.21,180l2.12-6.29Z"/><rect class="cls-7" x="203.7" y="222.42" width="20.87" height="2.98" transform="translate(-73.28 108.24) rotate(-24.36)"/><rect class="cls-7" x="203.51" y="223.01" width="20.87" height="2.45" transform="translate(-73.43 108.19) rotate(-24.36)"/><rect class="cls-9" x="202.64" y="221.46" width="20.87" height="1.73" transform="translate(-72.72 107.66) rotate(-24.36)"/><rect class="cls-4" x="202.3" y="220.51" width="21.14" height="1.49" transform="translate(-72.32 107.51) rotate(-24.36)"/><rect class="cls-4" x="204.14" y="224.84" width="21.37" height="1.49" transform="translate(-73.93 108.71) rotate(-24.36)"/><rect class="cls-4" x="210.38" y="222.83" width="1.49" height="4.79" transform="translate(-74.1 107.12) rotate(-24.36)"/><rect class="cls-4" x="215.56" y="220.09" width="1.49" height="5.17" transform="translate(-72.58 109.03) rotate(-24.36)"/><circle class="cls-4" cx="214.2" cy="223.47" r="0.5"/><path class="cls-10" d="M209.37,176.69h0a9.42,9.42,0,0,1,12.47,4.69l12,26.6-8.58,3.88Z"/><path class="cls-10" d="M198.89,224.75l-8.58,3.88-12-26.6A9.4,9.4,0,0,1,183,189.57h0Z"/><rect class="cls-13" x="219.03" y="173.96" width="2.36" height="39.06" transform="translate(-60.2 108.04) rotate(-24.36)"/><rect class="cls-13" x="186.53" y="189.09" width="2.36" height="39.06" transform="translate(-69.33 95.98) rotate(-24.36)"/><path class="cls-19" d="M197.14,225.78l3.24,7.16-.16.08a7.66,7.66,0,0,1-10-4.1Z"/><path class="cls-20" d="M227,211.61l3.24,7.16.17-.08a7.66,7.66,0,0,0,3.53-10.23Z"/><path class="cls-21" d="M229.18,211.06l3.16,7a7,7,0,0,1-1.44.87l-.17.08-3.24-7.16Z"/><path class="cls-20" d="M195,227l3.16,7a7,7,0,0,0,1.61-.51l.16-.07-3.24-7.17Z"/><path class="cls-10" d="M226.07,222.08l3.71-1.67a1.09,1.09,0,0,0,.54-1.44l-18.75-41.42a6.31,6.31,0,0,0-8.35-3.15h0l19.88,46.53A2.22,2.22,0,0,0,226.07,222.08Z"/><path class="cls-13" d="M227.72,213.78l2.19,4.84a1.09,1.09,0,0,1-.54,1.44l-3.71,1.68a2.2,2.2,0,0,1-2-.07A7.94,7.94,0,0,0,227.72,213.78Z"/><line class="cls-10" x1="233.99" y1="208.59" x2="227.05" y2="211.73"/><path class="cls-10" d="M205.57,231.61l-3.71,1.68a1.1,1.1,0,0,1-1.44-.55l-18.75-41.41a6.31,6.31,0,0,1,3.15-8.36h0l21.84,45.65A2.24,2.24,0,0,1,205.57,231.61Z"/><line class="cls-10" x1="190.2" y1="228.65" x2="197.14" y2="225.51"/><circle class="cls-13" cx="226.51" cy="217.45" r="1.11"/><circle class="cls-13" cx="224.53" cy="216.52" r="0.5"/><path class="cls-19" d="M182.08,152.13H194.7a0,0,0,0,1,0,0v22.93a6.31,6.31,0,0,1-6.31,6.31h0a6.31,6.31,0,0,1-6.31-6.31V152.13A0,0,0,0,1,182.08,152.13Z" transform="translate(-52 92.53) rotate(-24.36)"/><path class="cls-20" d="M195,164.55l1.56,3.45a33.77,33.77,0,0,1-11.39,5.43L183.62,170a33.55,33.55,0,0,0,5.33-1.89A34.23,34.23,0,0,0,195,164.55Z"/><path class="cls-4" d="M191.83,181.58a7.33,7.33,0,0,1-2.56-.47,7.16,7.16,0,0,1-4-3.79l-9.84-21.74,13.19-6,9.84,21.73a7.25,7.25,0,0,1-6.59,10.24Zm-14-25.07,9.07,20a5.38,5.38,0,0,0,7.11,2.68h0a5.39,5.39,0,0,0,2.68-7.12l-9.07-20Z"/><rect class="cls-4" x="223.54" y="186.09" width="1.12" height="1.31" transform="translate(-57.07 109.04) rotate(-24.36)"/><path class="cls-4" d="M226.9,194.29l-.89-2,1-.46.89,2Zm-1.52-3.36-.89-2,1-.46.89,2Z"/><rect class="cls-4" x="227.75" y="195.4" width="1.12" height="1.31" transform="translate(-60.52 111.57) rotate(-24.35)"/><rect class="cls-22" x="131.62" y="135.18" width="16.82" height="13.88" rx="6.94" transform="translate(-46.15 70.4) rotate(-24.36)"/><rect class="cls-19" x="134.48" y="137.31" width="10.76" height="8.87" rx="4.44" transform="translate(-46.01 70.3) rotate(-24.36)"/><path class="cls-4" d="M138.53,150.24a7.88,7.88,0,0,1-3.25-15.05L138,134a7.87,7.87,0,1,1,6.49,14.34l-2.68,1.22A7.81,7.81,0,0,1,138.53,150.24Zm2.68-15.1a6,6,0,0,0-2.48.54l-2.68,1.22A6,6,0,1,0,141,147.84l2.68-1.22a6,6,0,0,0-2.47-11.48Z"/><rect class="cls-20" x="192.28" y="107.72" width="16.82" height="13.88" rx="6.94" transform="translate(-29.43 92.97) rotate(-24.36)"/><rect class="cls-20" x="195.14" y="109.85" width="10.76" height="8.87" rx="4.44" transform="translate(-29.29 92.87) rotate(-24.36)"/><path class="cls-4" d="M199.19,122.78a7.88,7.88,0,0,1-3.25-15l2.68-1.21a7.87,7.87,0,1,1,6.49,14.34l-2.68,1.22A7.81,7.81,0,0,1,199.19,122.78Zm2.68-15.1a6,6,0,0,0-2.48.54l-2.68,1.22a6,6,0,1,0,4.95,10.94l2.68-1.22a6,6,0,0,0-2.47-11.48Z"/><rect class="cls-19" x="136.25" y="83.09" width="67.29" height="88.86" rx="33.64" transform="translate(-37.47 81.41) rotate(-24.36)"/><path class="cls-20" d="M196.61,105l8.9,19.66a33.64,33.64,0,0,1-16.78,44.52l-36.64-81A33.65,33.65,0,0,1,196.61,105Z"/><path class="cls-10" d="M191.69,167.51q-.93.5-1.89.93a33.65,33.65,0,0,1-44.53-16.78L136.37,132c-7.66-16.93-.83-36.56,16.1-44.22.64-.29.61-.25,1.26-.5-15.59,8.25-20.89,26.7-13.52,43l8.9,19.66A33.64,33.64,0,0,0,191.69,167.51Z"/><rect class="cls-23" x="141.77" y="115.77" width="22.19" height="5.38" rx="2.69" transform="translate(-40.52 119.55) rotate(-38.1)"/><path class="cls-4" d="M146.38,127.18a3.39,3.39,0,0,1-2.7-1.32,3.43,3.43,0,0,1,.58-4.82l13.17-10.32a3.44,3.44,0,0,1,4.24,5.41L148.5,126.45A3.43,3.43,0,0,1,146.38,127.18Zm13.16-15.7a1.89,1.89,0,0,0-1.19.41l-13.17,10.33a1.94,1.94,0,0,0-.33,2.72,1.95,1.95,0,0,0,2.73.33L160.75,115a1.94,1.94,0,0,0-1.21-3.47Z"/><rect class="cls-24" x="167.11" y="106.09" width="22.19" height="5.38" rx="2.69" transform="translate(-15.65 31.25) rotate(-9.6)"/><path class="cls-4" d="M169.83,113.27a3.45,3.45,0,0,1-3.38-2.87,3.45,3.45,0,0,1,2.82-4l16.49-2.79a3.45,3.45,0,0,1,2.57.59,3.45,3.45,0,0,1,.81,4.79,3.45,3.45,0,0,1-2.23,1.4h0l-16.5,2.79A3.79,3.79,0,0,1,169.83,113.27Zm16.51-8.17-.33,0-16.49,2.79a1.95,1.95,0,1,0,.64,3.84l16.5-2.79a1.93,1.93,0,0,0,1.26-.8,1.89,1.89,0,0,0,.33-1.44A1.94,1.94,0,0,0,186.34,105.1Z"/><path class="cls-4" d="M175.18,140.42a.91.91,0,0,1-.85-.55l-3.18-7a.92.92,0,0,1,.46-1.23.93.93,0,0,1,1.24.46l3.18,7a.94.94,0,0,1-.47,1.24A1,1,0,0,1,175.18,140.42Z"/><polygon class="cls-4" points="209.45 139 207.59 138.92 207.59 138.74 209.46 138.8 209.45 139"/><path class="cls-4" d="M206.37,151.88l-1.7-.77.14-.32,1.71.75Zm.58-1.36-1.73-.7c.05-.11.09-.22.13-.32l1.74.67C207.05,150.29,207,150.4,207,150.52Zm.53-1.39-1.76-.62.12-.33,1.76.61Zm.46-1.4-1.78-.55.1-.34,1.79.54C208,147.5,208,147.61,207.94,147.73Zm.41-1.43-1.81-.47.09-.34,1.81.46Zm.35-1.43-1.83-.4c0-.11,0-.23.07-.34l1.83.37C208.75,144.63,208.72,144.75,208.7,144.87Zm.28-1.46-1.84-.31.06-.35,1.84.3Zm.22-1.46-1.85-.24,0-.35,1.85.22Zm.16-1.47-1.86-.16,0-.35,1.87.14Z"/><polygon class="cls-4" points="205.81 153.05 204.14 152.22 204.22 152.06 205.9 152.88 205.81 153.05"/><path class="cls-4" d="M174.91,172.16a34.67,34.67,0,0,1-31.51-20.34l-8.9-19.66a34.58,34.58,0,0,1,63-28.52l8.9,19.66a34.31,34.31,0,0,1,3.07,14.94l-1.86,0a32.33,32.33,0,0,0-2.92-14.14l-8.89-19.66a32.71,32.71,0,0,0-59.6,27l8.9,19.66a32.71,32.71,0,0,0,58.75,1.73l1.66.87a34.69,34.69,0,0,1-30.6,18.51Z"/><circle class="cls-10" cx="138.36" cy="121.88" r="3.36"/><circle class="cls-10" cx="141.26" cy="116.16" r="1.54"/><circle class="cls-10" cx="159.04" cy="132.36" r="8.52"/><path class="cls-4" d="M159.37,142a9.28,9.28,0,0,1-8.46-5.44.75.75,0,0,1,1.37-.62,7.77,7.77,0,1,0,14.15-6.4.75.75,0,0,1,.37-1,.74.74,0,0,1,1,.37,9.27,9.27,0,0,1-4.62,12.26A9.17,9.17,0,0,1,159.37,142Z"/><circle class="cls-10" cx="181.17" cy="122.34" r="8.52"/><rect class="cls-4" x="181.65" y="118.51" width="4.22" height="8.31" rx="2.11" transform="translate(-34.24 86.7) rotate(-24.36)"/><circle class="cls-10" cx="184.93" cy="120.52" r="1.98"/><path class="cls-4" d="M181.61,131.64a9.28,9.28,0,0,1-8.45-5.44.75.75,0,0,1,1.36-.62,7.77,7.77,0,1,0,14.16-6.4.75.75,0,0,1,.37-1,.74.74,0,0,1,1,.37,9.26,9.26,0,0,1-8.43,13.08Z"/><circle class="cls-20" cx="193.12" cy="170.64" r="1.67"/><circle class="cls-20" cx="191.49" cy="173.48" r="0.74"/><circle class="cls-20" cx="155.4" cy="95.65" r="1.67"/><circle class="cls-20" cx="152.49" cy="94.14" r="0.74"/><path class="cls-4" d="M205.41,116.9l-.9-.67a3.73,3.73,0,0,0,.41-3.78,3.77,3.77,0,0,0-3.06-2.19l.11-1.11a4.87,4.87,0,0,1,3.44,7.75Z"/><path class="cls-10" d="M204.11,216a.57.57,0,0,1-.51-.32l-2.91-6.06a.57.57,0,0,1,.26-.75.55.55,0,0,1,.75.26l2.91,6.07a.54.54,0,0,1-.26.74A.53.53,0,0,1,204.11,216Z"/><path class="cls-10" d="M200.16,207.81a.57.57,0,0,1-.5-.32c-1.64-3.41-3.5-7.26-5-10.31a.56.56,0,0,1,1-.49c1.48,3.05,3.34,6.91,5,10.31a.56.56,0,0,1-.26.75A.54.54,0,0,1,200.16,207.81Z"/><path class="cls-25" d="M193.8,194.65a.57.57,0,0,1-.51-.32c-1-2-1.21-2.43-1.27-2.54a.54.54,0,0,1-.08-.52.55.55,0,0,1,.71-.35c.27.1.27.1,1.65,2.92a.56.56,0,0,1-.26.75A.53.53,0,0,1,193.8,194.65Z"/><path class="cls-4" d="M201.37,234.32a1.86,1.86,0,0,1-1.68-1.08L181,191.82a7,7,0,0,1,3.52-9.34l.66-.3,22.16,46.3a2.94,2.94,0,0,1,.11,2.31,3,3,0,0,1-1.57,1.69l-3.71,1.67A1.82,1.82,0,0,1,201.37,234.32Zm-16.93-50.14a5.58,5.58,0,0,0-2.27,2.77,5.48,5.48,0,0,0,.14,4.26l18.75,41.41a.32.32,0,0,0,.19.18.29.29,0,0,0,.26,0l3.71-1.67a1.48,1.48,0,0,0,.72-2Z"/><path class="cls-4" d="M197.25,234.32a8.19,8.19,0,0,1-3.09-.62,8.82,8.82,0,0,1-4.68-4.55l-3.4-7.52h0c-.36-.61-1.12-2.29-3.31-7.16-1.6-3.57-3.19-7.14-3.19-7.14l-2.95-6.5a8.44,8.44,0,0,1,3.91-11.23l.16-.07.62,1.36-.16.08A6.92,6.92,0,0,0,178,200.2l3,6.51c2.26,5.08,5.65,12.62,6.32,14h0l3.53,7.8a7.33,7.33,0,0,0,3.88,3.79,6.49,6.49,0,0,0,5.15-.06l.17-.08.61,1.36-.16.08A7.94,7.94,0,0,1,197.25,234.32Z"/><rect class="cls-4" x="189.82" y="226.52" width="7.62" height="1.49" transform="translate(-76.51 100.11) rotate(-24.36)"/><path class="cls-4" d="M225.26,223a2.87,2.87,0,0,1-1.08-.2,3,3,0,0,1-1.66-1.6L202.35,174l.66-.3a7.09,7.09,0,0,1,9.35,3.52l18.75,41.42a1.84,1.84,0,0,1,0,1.4,1.8,1.8,0,0,1-1,1l-3.71,1.68A3,3,0,0,1,225.26,223Zm-20.95-48.2,19.59,45.81a1.46,1.46,0,0,0,.82.8,1.53,1.53,0,0,0,1.15,0h0l3.71-1.68a.29.29,0,0,0,.17-.19.33.33,0,0,0,0-.26L211,177.81A5.58,5.58,0,0,0,204.31,174.78Z"/><path class="cls-4" d="M230.7,219.53l-.61-1.36.16-.08a6.92,6.92,0,0,0,3.16-9.24l-5.09-11.26,1.36-.61,5.09,11.25a8.43,8.43,0,0,1-3.9,11.23Z"/><path class="cls-4" d="M222.87,185.58l-2.28-5.06a6.93,6.93,0,0,0-9-3.73l-.16.08-.62-1.36.17-.08a8.43,8.43,0,0,1,11,4.47l2.29,5.06Z"/><rect class="cls-4" x="226.81" y="209.37" width="7.62" height="1.49" transform="translate(-66.14 113.85) rotate(-24.36)"/><polyline class="cls-4" points="172.22 93.1 172.46 97.5 170.44 99.14 170.8 103.05 167.99 104.77 169.31 102.37 167.14 98.33 169.44 96.44 167.36 92.87"/><polyline class="cls-4" points="171.91 96.59 173.43 100.32 175.17 100.86 175.96 103.49 178.24 103.88 176.75 102.66 177.1 99.47 175.11 98.84 175.53 95.97"/><polyline class="cls-4" points="163.13 89.13 160.22 95.32 160.9 97.14 159.2 99.52 160.36 101.68 160.41 99.64 163.33 97.86 162.56 95.78 167.85 92.79"/><path class="cls-23" d="M195.57,89a7,7,0,0,1-1.63,4L197,99.77a2.25,2.25,0,1,1-4.1,1.86l-2.83-6.25a7.07,7.07,0,0,1-2.11.16,7.39,7.39,0,0,1-1-.14,7.1,7.1,0,0,1-11.4.43,8.73,8.73,0,0,1-3.28.37,8.93,8.93,0,0,1,1.32-17.81h0a7.11,7.11,0,0,1,14.13,1.54,7.29,7.29,0,0,1-.27,1.48,6.7,6.7,0,0,1,1.49,0A7.1,7.1,0,0,1,195.57,89Z"/><path class="cls-10" d="M187.33,80.58c0,.15,0,.29-.05.44a7.73,7.73,0,0,0-13.43-4.08,7.11,7.11,0,0,1,13.48,3.64Z"/><path class="cls-24" d="M195.71,87.89a6.61,6.61,0,0,1,0,1.18,7.12,7.12,0,0,1-1.63,4l3.06,6.76a2.26,2.26,0,0,1-4.11,1.86l-2.83-6.25a7,7,0,0,1-2.11.16,7.24,7.24,0,0,1-1-.14,7.12,7.12,0,0,1-11.41.44,8.94,8.94,0,0,1-11.52-9.21c0-.07,0-.14,0-.22C169,90.88,180.33,98.1,195.71,87.89Z"/><circle class="cls-24" cx="171.33" cy="89.46" r="2.68"/><circle class="cls-24" cx="170.9" cy="84.69" r="0.95"/><path class="cls-4" d="M194.87,103.93a3.19,3.19,0,0,1-2.91-1.88l-2.53-5.58a8.84,8.84,0,0,1-1.63,0l-.48-.05a8,8,0,0,1-12.13.47,9.87,9.87,0,1,1-2.38-19.46,8.09,8.09,0,0,1,8.4-6A8.06,8.06,0,0,1,188.63,80c0,.14,0,.27,0,.41l.41,0a8.05,8.05,0,0,1,7.42,8.62,7.93,7.93,0,0,1-1.48,4.08l2.83,6.25a3.19,3.19,0,0,1-1.59,4.22A3.08,3.08,0,0,1,194.87,103.93Zm-4.35-9.6,3.14,7a1.32,1.32,0,0,0,2.44-.08,1.36,1.36,0,0,0,0-1l-3.31-7.3.38-.45A6.09,6.09,0,0,0,194.56,89h0a6.19,6.19,0,0,0-5.7-6.62,6.26,6.26,0,0,0-1.3,0l-1.44.2.42-1.39a5.93,5.93,0,0,0,.23-1.27,6.18,6.18,0,0,0-12.27-1.35l-.11.77-.83,0h-.07a8,8,0,0,0-1.19,16,8.15,8.15,0,0,0,2.94-.33l.6-.18.4.49a6.11,6.11,0,0,0,4.36,2.29,6.2,6.2,0,0,0,5.55-2.67l.35-.52.62.13a6.57,6.57,0,0,0,.83.13,6.17,6.17,0,0,0,1.82-.14Z"/><ellipse class="cls-26" cx="179.81" cy="149.42" rx="11.17" ry="5.93" transform="translate(-45.62 87.45) rotate(-24.36)"/><ellipse class="cls-27" cx="179.69" cy="148.95" rx="5.78" ry="3.84" transform="translate(-45.44 87.36) rotate(-24.36)"/><circle class="cls-27" cx="180.42" cy="152.71" r="1.38"/><circle class="cls-27" cx="183.09" cy="153.26" r="0.62"/><path class="cls-4" d="M140.61,106.6a11.2,11.2,0,0,1,2-3.77c.72-.85,1.37-1.22,1.7-1s.33.92.11,1.93-.62,2.3-1.06,3.72-.87,2.71-1.26,3.65-.74,1.53-1.14,1.54-.75-.69-.86-1.81A11,11,0,0,1,140.61,106.6Z"/><path class="cls-4" d="M144.13,110.32l-.1,0a11.22,11.22,0,0,0-4.87-.15.37.37,0,0,1-.45-.27.36.36,0,0,1,.26-.45,11.6,11.6,0,0,1,5.26.15.38.38,0,0,1-.1.74Z"/><path class="cls-4" d="M144.51,108.05a.32.32,0,0,1-.14,0,11.13,11.13,0,0,0-4.81-.77.38.38,0,0,1-.42-.32.37.37,0,0,1,.31-.42,11.53,11.53,0,0,1,5.2.82.37.37,0,0,1,.2.49A.38.38,0,0,1,144.51,108.05Z"/><path class="cls-4" d="M145.38,105.72l-.14,0a11,11,0,0,0-4.8-.77.37.37,0,1,1-.11-.74,11.75,11.75,0,0,1,5.2.82.37.37,0,0,1,.2.49A.37.37,0,0,1,145.38,105.72Z"/><polyline class="cls-10" points="171.35 149.8 173.34 154.18 179.86 151.23 176.08 145.31"/><path class="cls-28" d="M176.38,146.91a6,6,0,0,1-3.27,3.71,6.23,6.23,0,0,1-1.79.5l-.38-.85,4.72-4.49Z"/><path class="cls-4" d="M172.84,154.61l-2.06-4.56a.56.56,0,0,1,.28-.74.57.57,0,0,1,.74.28l1.6,3.54,5.41-2.46-3.27-5a.56.56,0,0,1,.94-.61l4,6.13Z"/><polyline class="cls-10" points="186.26 142.93 187.84 146.42 182.65 148.77 181.09 143.4"/><path class="cls-28" d="M181.89,144.42a4.79,4.79,0,0,0,3.94,0,4.74,4.74,0,0,0,1.23-.8l-.3-.68-5.17.47Z"/><path class="cls-4" d="M182.21,149.26l-1.61-5.73a.56.56,0,0,1,.39-.69.55.55,0,0,1,.69.39l1.26,4.47,4.08-1.85-1.22-2.71a.56.56,0,1,1,1-.46l1.69,3.72Z"/><path class="cls-10" d="M202.25,174.58c1.08,2.37-2,6.06-6.77,8.24s-9.58,2-10.65-.35c-.49-1.08-.13-2.43.86-3.78a16.9,16.9,0,0,0,13.15-5.95C200.51,172.89,201.76,173.5,202.25,174.58Z"/><path class="cls-13" d="M202.24,174.19c1.07,2.37-2,6.06-6.78,8.24-.31.14-.63.27-.94.39a1.14,1.14,0,0,1-.09-.3,2.26,2.26,0,0,1,.52-1.8,7.63,7.63,0,0,1,1.43-1.29,10.3,10.3,0,0,0,2.24-2.18,4.32,4.32,0,0,0,.85-2.95,3.61,3.61,0,0,0-.79-1.77l.14-.18C200.5,172.49,201.75,173.11,202.24,174.19Z"/><path class="cls-4" d="M175.79,163.3a.75.75,0,0,1-.68-.44l-2.47-5.47a.75.75,0,0,1,1.36-.61l2.47,5.46a.74.74,0,0,1-.37,1A.67.67,0,0,1,175.79,163.3Z"/><circle class="cls-4" cx="176.98" cy="165.23" r="0.75"/><path class="cls-4" d="M177.44,160.46a.75.75,0,0,1-.68-.44l-1.19-2.63a.75.75,0,0,1,1.36-.62l1.19,2.63a.75.75,0,0,1-.37,1A.7.7,0,0,1,177.44,160.46Z"/><path class="cls-4" d="M187.48,155l2,4.33a1.11,1.11,0,0,0,2-.89l-.62-1.38,0,0a1.11,1.11,0,0,1,0-.82,1.07,1.07,0,0,1,.58-.62,1.12,1.12,0,0,1,1.48.55l1.3,2.89a1.11,1.11,0,0,0,2-.92L191,146.53l-2.43,4.07-2.27,1.75,1.15,2.53A.69.69,0,0,0,187.48,155Z"/><path class="cls-19" d="M196.68,186.65l2,4.32a1.11,1.11,0,0,1-2,.95l-.63-1.38s0,0,0,0a1.13,1.13,0,0,0-.61-.55,1.09,1.09,0,0,0-.85,0,1.11,1.11,0,0,0-.56,1.47l1.31,2.88a1.13,1.13,0,0,1-.56,1.48,1.11,1.11,0,0,1-1.47-.56L188,183.68l4.5.52,2.66-.89,1.45,3.21A.54.54,0,0,1,196.68,186.65Z"/><path class="cls-4" d="M175.3,157.69c-2.94,0-5.25-1-6.13-2.94-1.54-3.41,2-8.24,8.1-11s12.07-2.24,13.62,1.17c.77,1.71.29,3.81-1.34,5.93a18,18,0,0,1-6.77,5.07A18.56,18.56,0,0,1,175.3,157.69Zm9.5-14.21a17.29,17.29,0,0,0-6.91,1.63c-5.15,2.33-8.52,6.46-7.36,9s6.49,2.76,11.64.43a16.43,16.43,0,0,0,6.2-4.62c1.28-1.66,1.69-3.23,1.16-4.41C188.91,144.17,187.12,143.48,184.8,143.48Z"/><path class="cls-4" d="M184.53,78.58a.55.55,0,0,1-.56-.53,2.47,2.47,0,0,0-.23-1,2.6,2.6,0,0,0-1.44-1.36,2.57,2.57,0,0,0-2,.07.56.56,0,1,1-.46-1A3.71,3.71,0,0,1,185.09,78a.56.56,0,0,1-.54.58Z"/><polyline class="cls-4" points="181.29 98.52 181.82 101.28 184.65 102.51 183.37 100.21 184.04 97.99"/><path class="cls-4" d="M184,83h-.1a.57.57,0,0,1-.45-.65l.42-2.43a.55.55,0,0,1,.64-.45.55.55,0,0,1,.46.64l-.42,2.43A.55.55,0,0,1,184,83Z"/><rect class="cls-4" x="156.12" y="127.31" width="4.22" height="10.55" rx="2.11" transform="translate(-40.6 77.06) rotate(-24.36)"/><circle class="cls-10" cx="159.25" cy="130.09" r="1.98"/><path class="cls-4" d="M189.15,184.88c-2.41,0-4.27-.79-5-2.32-.59-1.3-.25-2.91.94-4.53l.25-.34.42,0a16.12,16.12,0,0,0,12.47-5.64l.25-.34.42,0c2,.17,3.45,1,4,2.27h0c.65,1.42.19,3.19-1.28,5a16.35,16.35,0,0,1-5.86,4.26A16.7,16.7,0,0,1,189.15,184.88Zm-3-5.64a2.9,2.9,0,0,0-.56,2.7c1,2.13,5.87,1.7,9.66,0a15.08,15.08,0,0,0,5.33-3.84c1.07-1.31,1.46-2.55,1.07-3.41h0a2.89,2.89,0,0,0-2.4-1.36,17.89,17.89,0,0,1-13.1,5.93Z"/><circle class="cls-19" cx="201.76" cy="193.21" r="1.49"/><path class="cls-29" d="M69.83,171.42h40.3a8.51,8.51,0,0,1,8.51,8.51v22.59a8.51,8.51,0,0,1-8.51,8.51H62.72a1.4,1.4,0,0,1-1.4-1.4v-29.7a8.51,8.51,0,0,1,8.51-8.51Z" transform="translate(110.28 -19.13) rotate(30.71)"/><path class="cls-30" d="M121.56,193l-15.94,26.85a4.19,4.19,0,0,1-5.75,1.46L75.78,207c13.39-4.6,27-19.06,33.2-26.36l11.12,6.61A4.18,4.18,0,0,1,121.56,193Z"/><rect class="cls-31" x="63.49" y="162.97" width="1.81" height="33.16" transform="translate(100.73 -7.71) rotate(30.71)"/><path class="cls-32" d="M122.34,190.91l-1.75,3L71.3,164.58l1.75-2.94a1.9,1.9,0,0,1,2.63-.55l45.89,27.26A1.9,1.9,0,0,1,122.34,190.91Z"/><circle class="cls-4" cx="76.65" cy="164.56" r="0.58"/><circle class="cls-4" cx="78.68" cy="165.76" r="0.58"/><circle class="cls-4" cx="80.71" cy="166.97" r="0.58"/><polygon class="cls-10" points="103.74 177.84 98.42 180.78 95.39 178.98 100.71 176.04 103.74 177.84"/><polygon class="cls-10" points="110.83 182.05 105.51 184.99 102.47 183.18 107.79 180.25 110.83 182.05"/><path class="cls-4" d="M102.72,223.1a3.21,3.21,0,0,1-1.62-.44l-45.42-27a3.18,3.18,0,0,1-1.11-4.35l17.94-30.2A3.18,3.18,0,0,1,76.86,160l45.43,27a3.2,3.2,0,0,1,1.11,4.36l-18,30.2a3.13,3.13,0,0,1-1.94,1.45A3.06,3.06,0,0,1,102.72,223.1Zm-.66-2a1.31,1.31,0,0,0,1.79-.46l17.94-30.2a1.31,1.31,0,0,0-.46-1.79l-45.42-27a1.3,1.3,0,0,0-1.79.45l-18,30.2a1.39,1.39,0,0,0-.14,1,1.34,1.34,0,0,0,.6.8Z"/><rect class="cls-4" x="95.75" y="150.47" width="1.12" height="57.62" transform="translate(-107.01 170.52) rotate(-59.29)"/><path class="cls-33" d="M96.39,185.46a.6.6,0,0,1-.28-.08l-21.87-13a.56.56,0,1,1,.57-1l21.87,13a.56.56,0,0,1,.2.76A.58.58,0,0,1,96.39,185.46Z"/><path class="cls-34" d="M84.54,183.47a.5.5,0,0,1-.28-.08L72,176.12a.56.56,0,1,1,.57-1l12.24,7.27a.56.56,0,0,1-.29,1Z"/><path class="cls-10" d="M84.57,188.54a.48.48,0,0,1-.28-.08l-14.49-8.6a.56.56,0,1,1,.57-1l14.49,8.6a.56.56,0,0,1,.19.77A.54.54,0,0,1,84.57,188.54Z"/><path class="cls-10" d="M89.88,186.64a.51.51,0,0,1-.29-.08l-1.64-1a.56.56,0,0,1-.2-.77.57.57,0,0,1,.77-.2l1.64,1a.56.56,0,0,1,.2.77A.57.57,0,0,1,89.88,186.64Z"/><path class="cls-33" d="M91.19,192.48a.6.6,0,0,1-.29-.08l-3.24-1.93a.56.56,0,0,1-.2-.77.57.57,0,0,1,.77-.2l3.25,1.93a.57.57,0,0,1,.19.77A.55.55,0,0,1,91.19,192.48Z"/><rect class="cls-29" x="165.82" y="31.09" width="47.62" height="14.43" rx="7.22" transform="translate(9.56 109.03) rotate(-32.86)"/><path class="cls-31" d="M182.39,51.75,180,53.3a7.27,7.27,0,0,1-7.89-12.21l2.41-1.56a7.28,7.28,0,0,0,7.9,12.22Z"/><path class="cls-30" d="M209.28,25.52a6.71,6.71,0,0,1-2,9.27l-14.93,9.65a17.78,17.78,0,0,0-4.41-13.13L200,23.52A6.71,6.71,0,0,1,209.28,25.52Z"/><circle class="cls-30" cx="192.01" cy="39.85" r="2.79"/><circle class="cls-30" cx="186.56" cy="40.58" r="1.24"/><circle class="cls-33" cx="178.65" cy="45.25" r="4.17"/><path class="cls-35" d="M176.6,41.27c2.8-1.81,7,.17,6.45,4.65a4.82,4.82,0,0,1-3.22,2.9,4.16,4.16,0,0,0-4.26-6.6A4.27,4.27,0,0,1,176.6,41.27Z"/><path class="cls-4" d="M178.78,50.09a5.33,5.33,0,0,1-1-.11,4.91,4.91,0,1,1,5.16-7.47h0a4.92,4.92,0,0,1-4.12,7.58Zm0-8.33a3.37,3.37,0,0,0-1.85.54,3.43,3.43,0,0,0-1,4.73,3.39,3.39,0,0,0,2.16,1.49,3.42,3.42,0,1,0,.71-6.76Z"/><path class="cls-4" d="M175.75,55.26a8.4,8.4,0,0,1-1.73-.18,8.16,8.16,0,0,1-2.71-14.82l27.88-18a8.16,8.16,0,0,1,11.27,2.43A8.14,8.14,0,0,1,208,35.94L180.15,54A8,8,0,0,1,175.75,55.26ZM203.6,22.82a6.23,6.23,0,0,0-3.4,1l-27.88,18a6.29,6.29,0,0,0,6.82,10.56l27.88-18a6.28,6.28,0,0,0,1.87-8.68A6.29,6.29,0,0,0,203.6,22.82Z"/></g></g></svg>